PathFileType	4	(X/Y/Z)	D:\MotionData\NordSprintingStudy\Test 2\Edited\COP_Right_Board_FP3000001.trc
DataRate	CameraRate	NumFrames	NumMarkers	Units	OrigDataRate	OrigDataStartFrame	OrigNumFrames
200.00	200.00	     35	5	mm	200.00	13279	     17704
Frame#	Time	M1			M2			M3			M4			M5			
		X1	Y1	Z1	X2	Y2	Z2	X3	Y3	Z3	X4	Y4	Z4	X5	Y5	Z5	

13279	66.390	1617.69739	761.17395	429.12500	1766.17786	481.51251	481.19189	1764.45764	516.76501	678.73676	1761.60864	587.94092	1071.97827	1612.97876	868.16980	1019.88098	
13280	66.395	1617.38513	761.35522	428.77612	1765.40466	481.60535	481.48999	1763.25183	516.98224	678.96808	1759.36963	588.41644	1072.12805	1611.11548	868.71490	1019.47479	
13281	66.400	1617.05212	761.51630	428.45547	1764.72437	481.68442	481.74554	1762.05652	517.18298	679.20160	1757.07837	588.90051	1072.21362	1609.29272	869.25073	1019.00293	
13282	66.405	1616.74329	761.67188	428.14090	1764.07715	481.78265	481.96793	1760.82556	517.40735	679.44055	1754.93750	589.27856	1072.47168	1607.33789	869.71582	1018.57977	
13283	66.410	1616.39429	761.80609	427.84033	1763.45923	481.85880	482.17883	1759.71033	517.59229	679.64844	1752.64478	589.70428	1072.47998	1605.46143	870.25885	1018.18256	
13284	66.415	1615.90662	761.84204	427.39145	1762.79602	481.92941	482.40683	1758.56201	517.78894	679.83221	1750.61279	590.07611	1072.78247	1603.57983	870.64813	1017.84802	
13285	66.420	1615.62878	761.92377	427.14563	1762.19263	482.05511	482.61307	1757.43713	517.95374	680.00830	1748.39465	590.47479	1072.79749	1601.75171	871.03101	1017.50385	
13286	66.425	1615.23975	762.01947	426.86472	1761.61292	482.13235	482.84598	1756.37451	518.09949	680.21198	1746.32935	590.82001	1073.00610	1599.74731	871.42200	1017.10242	
13287	66.430	1614.74829	762.07391	426.58578	1761.06494	482.05115	483.05139	1755.21582	518.28467	680.41046	1744.15906	591.17511	1073.11401	1597.84106	871.74365	1016.72137	
13288	66.435	1614.31665	762.12836	426.29633	1760.46118	482.14648	483.28189	1754.16785	518.45789	680.57214	1742.17285	591.51434	1073.30420	1595.88464	872.07513	1016.31580	
13289	66.440	1613.94116	762.29810	426.13101	1759.89441	482.24045	483.45163	1753.09924	518.59222	680.75195	1740.09668	591.76886	1073.35217	1593.86865	872.32068	1015.99646	
13290	66.445	1613.54114	762.34735	425.84985	1759.37073	482.34680	483.65540	1752.02380	518.76166	680.91376	1738.00989	592.05676	1073.48914	1591.87329	872.52087	1015.62970	
13291	66.450	1613.12573	762.38165	425.61819	1758.85474	482.43515	483.82568	1751.02478	518.87708	681.05829	1735.91724	592.26660	1073.62048	1589.97949	872.70319	1015.31329	
13292	66.455	1612.52759	762.41083	425.30682	1758.33228	482.51746	484.02386	1749.98376	519.01318	681.21039	1733.89417	592.52264	1073.66418	1587.98987	872.86389	1014.96173	
13293	66.460	1611.97375	762.41571	425.09808	1757.78967	482.58771	484.20038	1748.95203	519.11713	681.34705	1731.90625	592.71271	1073.81995	1585.95691	872.99622	1014.58026	
13294	66.465	1611.61865	762.39740	424.94205	1757.24536	482.67801	484.36993	1747.92212	519.20099	681.48962	1729.90930	592.88031	1073.84241	1584.01221	873.08356	1014.32043	
13295	66.470	1611.11353	762.37408	424.70361	1756.76257	482.75311	484.54251	1746.94324	519.33191	681.63776	1727.60217	593.03961	1073.81763	1581.75586	873.04950	1013.93835	
13296	66.475	1610.60742	762.35291	424.47159	1756.29175	482.82953	484.73898	1745.94189	519.37323	681.76788	1725.93481	593.13348	1074.01807	1579.83350	873.12109	1013.71246	
13297	66.480	1610.01697	762.28589	424.25992	1755.85229	482.92090	484.86594	1744.96558	519.47461	681.90936	1723.92651	593.26556	1073.94568	1577.85974	873.08704	1013.42737	
13298	66.485	1609.38477	762.06335	423.97687	1755.43359	482.94708	485.03195	1744.02209	519.55286	682.06281	1722.37256	593.33838	1074.10986	1575.76160	872.98407	1013.13446	
13299	66.490	1608.88611	762.08228	423.88074	1755.04980	483.01608	485.19138	1743.11951	519.60614	682.17615	1720.47375	593.32294	1074.09912	1573.65088	872.85815	1012.91290	
13300	66.495	1608.33508	761.97449	423.68198	1754.64197	483.13235	485.34174	1742.25269	519.65729	682.29993	1718.50427	593.34406	1074.22156	1571.43628	872.50562	1012.68829	
13301	66.500	1607.65869	761.85303	423.46387	1754.25427	483.19717	485.48691	1741.36389	519.69318	682.42963	1716.58801	593.35657	1074.30054	1569.34351	872.31543	1012.39142	
13302	66.505	1606.97803	761.71167	423.29483	1753.86694	483.27121	485.64639	1740.46924	519.73541	682.54315	1714.57605	593.28833	1074.40540	1567.23901	872.08716	1012.17346	
13303	66.510	1606.37695	761.55255	423.12421	1753.49353	483.35162	485.75568	1739.73633	519.77032	682.53857	1712.85925	593.22949	1074.39795	1565.15027	871.83856	1011.85516	
13304	66.515	1605.80164	761.40393	422.95715	1753.11621	483.40192	485.89713	1738.79663	519.78101	682.76465	1710.93994	593.23450	1074.31445	1563.12781	871.57831	1011.58569	
13305	66.520	1605.20752	761.25299	422.80841	1752.74756	483.43069	486.02512	1737.92078	519.76746	682.81573	1709.16553	593.04846	1074.50928	1560.96350	871.26129	1011.30493	
13306	66.525	1604.59656	761.11578	422.64764	1752.37561	483.44327	486.12048	1737.05481	519.74677	682.90717	1707.28015	592.91010	1074.57007	1559.03003	871.02429	1011.02948	
13307	66.530	1604.04077	760.99866	422.47205	1751.96570	483.45102	486.26071	1736.13062	519.68005	683.00018	1705.38928	592.70862	1074.57568	1557.05933	870.75220	1010.81506	
13308	66.535	1603.57446	760.89935	422.31601	1751.49500	483.43045	486.35049	1735.18933	519.57617	683.04956	1703.49121	592.47412	1074.59424	1555.14624	870.43329	1010.61877	
13309	66.540	1603.00623	760.80750	422.09421	1751.02795	483.37515	486.44055	1734.23694	519.37939	683.07941	1701.52563	592.21832	1074.62268	1553.18384	870.12164	1010.31110	
13310	66.545	1602.56433	760.70593	421.92090	1750.47925	483.31265	486.53159	1733.27625	519.24561	683.14551	1699.55371	591.97791	1074.56409	1551.38696	869.80463	1010.06903	
13311	66.550	1602.26086	760.62286	421.82098	1749.99036	483.23651	486.60291	1732.23071	519.07806	683.21246	1697.69727	591.59259	1074.66040	1549.47729	869.52142	1009.79126	
13312	66.555	1601.83252	760.54364	421.68362	1749.47229	483.14612	486.69440	1731.29980	518.88202	683.26776	1695.69592	591.20020	1074.69153	1547.78918	869.19788	1009.59943	
13313	66.560	1601.44104	760.45569	421.53833	1748.95129	483.04547	486.77774	1730.26282	518.69781	683.33789	1693.56140	590.84058	1074.58142	1545.92603	868.87189	1009.37921	
